<svg id="Layer_1" data-name="Layer 1" xmlns="http://www.w3.org/2000/svg" viewBox="0 0 115 42"><defs><style>.cls-1{fill:#687785;}</style></defs><title>logo-bizagi</title><g id="Home_workPortal" data-name="Home workPortal"><g id="_2-Vanguard-Darks" data-name="2-Vanguard-Darks"><g id="bizagi_home_workportal" data-name="bizagi home workportal"><g id="menu_top" data-name="menu top"><g id="logo"><path id="Shape" class="cls-1" d="M111.39,10.26a1.69,1.69,0,0,0-1.19-.49h-2.83a0.59,0.59,0,0,0-.57.57V29.67a1.57,1.57,0,0,0,.5,1.14,1.67,1.67,0,0,0,1.15.49h2.83a0.55,0.55,0,0,0,.54-0.57V11.44a1.5,1.5,0,0,0-.42-1.18h0Z"/><path id="Shape-2" data-name="Shape" class="cls-1" d="M32.6,9.81H29.8a0.55,0.55,0,0,0-.54.57V29.7a1.57,1.57,0,0,0,.5,1.14,1.67,1.67,0,0,0,1.15.49h2.83a0.59,0.59,0,0,0,.57-0.57V11.44a1.57,1.57,0,0,0-.5-1.14,1.68,1.68,0,0,0-1.23-.49h0Z"/><path id="Shape-3" data-name="Shape" class="cls-1" d="M22.83,12.92a11.52,11.52,0,0,0-8.08-3.11A11,11,0,0,0,9.7,11c-0.46.27-1.15,0.72-1.19,0.72s0,0.08,0,0a8.71,8.71,0,0,1,3.18-1s0,0,0,0a10,10,0,0,0-3.18,1.33s0,0.08,0,0a9.34,9.34,0,0,1,3.18-.87s0,0,0,0A10.27,10.27,0,0,0,8.55,12.5s0,0.08,0,0a8.73,8.73,0,0,1,3.22-.68s0,0,0,0a13.48,13.48,0,0,0-3.25,1s0,0.08,0,0a9.6,9.6,0,0,1,3.25-.49s0,0,0,0a14,14,0,0,0-3.25.84s0,0.08,0,0A13,13,0,0,1,11.81,13s0,0,0,0a15.86,15.86,0,0,0-3.29.68s0,0,0,0a15.7,15.7,0,0,1,3.33-.19s0,0,0,0a22.42,22.42,0,0,0-3.33.53s0,0,0,0c1,0,1.38,0,3.1,0h3.06A6.21,6.21,0,0,1,19.2,16a6.11,6.11,0,0,1,0,8.77,6.23,6.23,0,0,1-4.56,1.82,6.15,6.15,0,0,1-4.52-1.82,6,6,0,0,1-1.84-4.4V2.86a1.52,1.52,0,0,0-.5-1.18,1.65,1.65,0,0,0-1.19-.46H3.8a0.58,0.58,0,0,0-.57.53V20.52A10.1,10.1,0,0,0,6.6,28.11a11.42,11.42,0,0,0,8.08,3.15,11.42,11.42,0,0,0,8.08-3.15,10.16,10.16,0,0,0,3.37-7.59,9.76,9.76,0,0,0-3.29-7.59h0Z"/><path id="Shape-4" data-name="Shape" class="cls-1" d="M75.51,13A11.88,11.88,0,0,0,59.4,13,10,10,0,0,0,56,20.55a10,10,0,0,0,3.37,7.59,11.4,11.4,0,0,0,8,3.15,10.68,10.68,0,0,0,3.83-.65,8.65,8.65,0,0,0,2.34-1.22s0-.08,0,0a8.26,8.26,0,0,1-3.14,1s0,0,0,0A12.12,12.12,0,0,0,73.6,29s0-.08,0,0a8.32,8.32,0,0,1-3.18.87s0,0,0,0a13.08,13.08,0,0,0,3.18-1.22s0-.08,0,0a9,9,0,0,1-3.22.72s0,0,0,0a14.72,14.72,0,0,0,3.22-1.06s0,0,0,0a9.33,9.33,0,0,1-3.22.57s0,0,0,0a17.12,17.12,0,0,0,3.25-.91s0-.08,0,0a11.1,11.1,0,0,1-3.25.42s0,0,0,0a22.12,22.12,0,0,0,3.25-.72s0,0,0,0a14.86,14.86,0,0,1-3.25.27s0,0,0,0c0.42,0,2.3-.34,3.25-0.57,0,0,0,0,0,0a37.08,37.08,0,0,1-4.06,0H67.44a6.32,6.32,0,0,1-6.36-6.19A5.89,5.89,0,0,1,63,16.42a6.46,6.46,0,0,1,9.07,0,6,6,0,0,1,1.88,4.4V31a0.79,0.79,0,0,0,.15.42,0.58,0.58,0,0,0,.42.15h3.94A0.59,0.59,0,0,0,79,31V20.78A10.67,10.67,0,0,0,75.51,13h0Z"/><path id="Shape-5" data-name="Shape" class="cls-1" d="M39,14.4h5.44c0.61,0,.38,0,2-0.08,1.38-.08,2.26-0.49,3.37-0.57,0,0,0,0,0,0a24.8,24.8,0,0,0-2.95.15s0,0,0,0a21.51,21.51,0,0,1,3.41-.53s0,0,0,0a19.51,19.51,0,0,0-2.95.11s0,0,0,0a14.21,14.21,0,0,1,3.41-.49s0,0,0,0a20.68,20.68,0,0,0-3,.11s0,0,0,0A17.5,17.5,0,0,1,51,12.43s0,0,0,0a14.78,14.78,0,0,0-3,0s0,0,0,0A12.64,12.64,0,0,1,51.32,12s0,0,0,0a12.9,12.9,0,0,0-3,0s0,0,0,0a11.76,11.76,0,0,1,3.22-.34s0,0,0,0a10,10,0,0,0-3,0s0,0,0,0a10.42,10.42,0,0,1,3.06-.27s0,0,0,0a9.48,9.48,0,0,0-3-.11s0,0,0,0a9,9,0,0,1,2.83-.27s0,0,0,0a7,7,0,0,0-3-.15s0,0,0,0a8.86,8.86,0,0,1,2.6-.19s0,0,0,0a5.19,5.19,0,0,0-1.34-.19H37.92a0.59,0.59,0,0,0-.57.57v2.09A1.63,1.63,0,0,0,39,14.4h0Z"/><path id="Shape-6" data-name="Shape" class="cls-1" d="M52.54,26.67H47.11c-0.61,0-.38,0-2,0.08-1.42.08-2.3,0.49-3.37,0.57,0,0,0,0,0,0a24.8,24.8,0,0,0,2.95-.15s0,0,0,0a22.2,22.2,0,0,1-3.41.53s0,0,0,0a19.78,19.78,0,0,0,2.95-.11s0,0,0,0a14.48,14.48,0,0,1-3.41.49s0,0,0,0a15.89,15.89,0,0,0,3-.11s0,0,0,0a15,15,0,0,1-3.37.46s0,0,0,0a14.78,14.78,0,0,0,3,0s0,0,0,0a12.64,12.64,0,0,1-3.29.38s0,0,0,0a12.85,12.85,0,0,0,3,0s0,0,0,0a11.93,11.93,0,0,1-3.22.34s0,0,0,0a8.85,8.85,0,0,0,3,0s0,0,0,0a10.42,10.42,0,0,1-3.06.27s0,0,0,0A9.14,9.14,0,0,0,43,30s0,0,0,0a9.18,9.18,0,0,1-2.87.27s0,0,0,0a7,7,0,0,0,3,.15s0,0,0,0a8.86,8.86,0,0,1-2.6.19s0,0,0,0a5.14,5.14,0,0,0,1.3.19H53.54a0.56,0.56,0,0,0,.57-0.57v-2a1.66,1.66,0,0,0-.5-1.18,1.26,1.26,0,0,0-1.07-.49h0Z"/><path id="Shape-7" data-name="Shape" class="cls-1" d="M42.21,26.67L52.89,17.4a4.5,4.5,0,0,0-1.53-7.29s0,0,0,0c1,1-.31,2.66-1.34,3.65L38.68,23.63a4.65,4.65,0,0,0-1.26,3.11,4.46,4.46,0,0,0,2.6,4.1h0c-1-1.48,2.18-4.18,2.18-4.18h0Z"/><path id="Shape-8" data-name="Shape" class="cls-1" d="M100.36,13a11.58,11.58,0,0,0-8.12-3.15A11.42,11.42,0,0,0,84.17,13a10.28,10.28,0,0,0,0,15.19,11.42,11.42,0,0,0,8.08,3.15h0.73a10.4,10.4,0,0,0,3.14-.65,8,8,0,0,0,2.3-1.22s0-.08,0,0a8.07,8.07,0,0,1-3.14,1s0,0,0,0A12.12,12.12,0,0,0,98.37,29s0-.08,0,0a8.32,8.32,0,0,1-3.18.87s0,0,0,0a13.08,13.08,0,0,0,3.18-1.22s0-.08,0,0a9,9,0,0,1-3.22.72s0,0,0,0a14.09,14.09,0,0,0,3.22-1.06s0,0,0,0a9.17,9.17,0,0,1-3.22.57s0,0,0,0a17.12,17.12,0,0,0,3.25-.91s0-.08,0,0a11.1,11.1,0,0,1-3.25.42s0,0,0,0a22.12,22.12,0,0,0,3.25-.72s0,0,0,0a14.86,14.86,0,0,1-3.25.27s0,0,0,0c0.42,0,2.3-.34,3.25-0.57,0,0,0,0,0,0a37.08,37.08,0,0,1-4.06,0H92.21a6.21,6.21,0,0,1-4.52-1.82,6.06,6.06,0,0,1,0-8.77,6.27,6.27,0,0,1,4.56-1.86,6.09,6.09,0,0,1,4.52,1.86,6,6,0,0,1,1.84,4.4s0.08,9.76,0,9.87a5.71,5.71,0,0,1-1.91,3.76,6.34,6.34,0,0,1-4.48,1.75H87.15a1.69,1.69,0,0,0-1.19.49,1.63,1.63,0,0,0-.46,1.18v2.32a0.55,0.55,0,0,0,.54.57h6.2a11.62,11.62,0,0,0,8.08-3.11A10.1,10.1,0,0,0,103.69,30V20.9A10.2,10.2,0,0,0,100.36,13h0Z"/></g></g></g></g></g></svg>